<?xml version="1.0" encoding="utf-8"?>
<!-- Generator: Adobe Illustrator 24.2.3, SVG Export Plug-In . SVG Version: 6.00 Build 0)  -->
<svg version="1.1" id="Layer_1" xmlns="http://www.w3.org/2000/svg" xmlns:xlink="http://www.w3.org/1999/xlink" x="0px" y="0px"
	 viewBox="0 0 369.45 32.31" style="enable-background:new 0 0 369.45 32.31;" xml:space="preserve">
<style type="text/css">
	.st0{fill:#FFFFFF;}
</style>
<g>
	<path class="st0" d="M22.82,25.44c-0.91,1.71-1.97,2.96-3.17,3.74c-1.2,0.78-2.66,1.18-4.37,1.18H8.16v-14.1h5.32
		c1.55,0,2.75,0.26,3.61,0.77c0.86,0.51,1.46,1.34,1.8,2.48l0.17,0.6h0.04h0.39v-8.38H19.1l-0.17,0.51
		c-0.37,1.03-0.98,1.77-1.82,2.22c-0.84,0.46-2.04,0.68-3.58,0.68H8.21V3.04h6.95c1.72,0,3.11,0.39,4.18,1.18
		C20.4,5,21.23,6.25,21.8,7.96l0.39,1.15h0.34V1.8H0v0.51l0.51,0.04c1.02,0.06,1.77,0.36,2.22,0.9c0.46,0.54,0.68,1.4,0.68,2.57
		v21.76c0,1.17-0.23,2.02-0.68,2.56c-0.46,0.54-1.2,0.84-2.22,0.9L0,31.08v0.51h22.52l0.09-0.6h0.04c0.17-1,0.36-2.11,0.58-3.33
		c0.21-1.22,0.41-2.35,0.58-3.38h-0.34L22.82,25.44z"/>
	<path class="st0" d="M65.93,2.25c-1.04-0.23-2.12-0.42-3.25-0.55c-1.13-0.13-2.23-0.2-3.31-0.2c-2.48,0-4.74,0.36-6.78,1.09
		c-2.04,0.73-3.77,1.75-5.21,3.06c-1.44,1.31-2.56,2.9-3.35,4.75c-0.8,1.85-1.2,3.92-1.2,6.21c0,2.26,0.4,4.32,1.2,6.19
		c0.8,1.87,1.92,3.46,3.35,4.77c1.44,1.31,3.18,2.33,5.21,3.06c2.04,0.73,4.3,1.09,6.78,1.09c1.08,0,2.19-0.07,3.31-0.2
		c1.13-0.13,2.21-0.32,3.25-0.55c1.04-0.24,2.02-0.52,2.93-0.85c0.91-0.33,1.71-0.69,2.39-1.09v-6.71h-0.39
		c-0.09,0.26-0.18,0.54-0.3,0.85c-0.11,0.31-0.21,0.6-0.3,0.85c-0.34,0.88-0.83,1.71-1.45,2.48c-0.63,0.77-1.35,1.43-2.16,1.99
		c-0.81,0.55-1.71,1.01-2.69,1.35c-0.98,0.34-2,0.54-3.06,0.6c-0.26,0.03-0.51,0.04-0.77,0.04h-0.77c-1.68,0-3.22-0.34-4.62-1
		c-1.4-0.67-2.59-1.61-3.57-2.82c-0.98-1.21-1.75-2.67-2.29-4.37c-0.54-1.71-0.81-3.6-0.81-5.68c0-2.08,0.27-3.97,0.81-5.68
		c0.54-1.71,1.3-3.17,2.29-4.37c0.98-1.21,2.17-2.15,3.57-2.82c1.4-0.67,2.93-1,4.62-1c0.06,0,0.27,0.01,0.64,0.02
		c0.37,0.02,0.76,0.03,1.17,0.04c0.41,0.01,0.78,0.04,1.11,0.06c0.33,0.03,0.49,0.06,0.49,0.09c1.62,0.23,3.11,0.91,4.47,2.03
		c1.35,1.13,2.36,2.54,3.01,4.25c0.09,0.26,0.19,0.54,0.3,0.85c0.11,0.31,0.21,0.6,0.3,0.86l0.04-0.04h0.34V4.2
		c-0.68-0.4-1.48-0.76-2.39-1.09C67.95,2.77,66.97,2.49,65.93,2.25z"/>
	<path class="st0" d="M117.33,6.06c-1.31-1.38-2.93-2.48-4.85-3.29c-1.92-0.81-4.17-1.22-6.73-1.22c-2.57,0-4.82,0.41-6.75,1.22
		c-1.94,0.81-3.56,1.91-4.87,3.29c-1.31,1.38-2.3,2.98-2.95,4.81c-0.66,1.83-0.98,3.76-0.98,5.81c0,2.05,0.33,3.99,0.98,5.81
		c0.65,1.82,1.64,3.43,2.95,4.81c1.31,1.38,2.93,2.48,4.87,3.29c1.94,0.81,4.19,1.22,6.75,1.22c2.56,0,4.81-0.41,6.73-1.22
		c1.92-0.81,3.54-1.91,4.85-3.29c1.31-1.38,2.29-2.98,2.95-4.81c0.65-1.82,0.98-3.76,0.98-5.81c0-2.05-0.33-3.99-0.98-5.81
		C119.62,9.04,118.64,7.44,117.33,6.06z M115.19,22.02c-0.43,1.68-1.06,3.16-1.9,4.42c-0.84,1.27-1.9,2.27-3.16,3.01
		c-1.27,0.74-2.74,1.11-4.42,1.11c-1.68,0-3.16-0.37-4.45-1.11c-1.28-0.74-2.35-1.74-3.21-3.01c-0.85-1.27-1.49-2.74-1.92-4.42
		c-0.43-1.68-0.64-3.46-0.64-5.34c0-1.88,0.21-3.66,0.64-5.34c0.43-1.68,1.07-3.16,1.92-4.42c0.86-1.27,1.92-2.27,3.21-3.01
		c1.28-0.74,2.76-1.11,4.45-1.11c1.68,0,3.15,0.37,4.42,1.11c1.27,0.74,2.32,1.75,3.16,3.01c0.84,1.27,1.47,2.74,1.9,4.42
		c0.43,1.68,0.64,3.46,0.64,5.34C115.83,18.56,115.62,20.34,115.19,22.02z"/>
	<path class="st0" d="M161.14,0l-8.17,25.17l-7.59-20.97c-0.65-1.99,0.11-3.03,2.28-3.12l0.63-0.04l0.09-0.04V0.45h-12.45v0.54
		l0.4,0.04c0.86,0.06,1.59,0.37,2.19,0.94c0.6,0.57,1.13,1.46,1.61,2.68l10.62,27.62h1.21L162.44,0H161.14z"/>
	<path class="st0" d="M174.89,1.03l1.2,0.04c1.25,0.06,2.05,0.37,2.41,0.92c0.36,0.55,0.34,1.45-0.04,2.7l-6.23,19.97l-9.79-24.61
		l-2.59,7.99l10.02,24.21l-0.02,0.06h1.29l8.84-27.62c0.42-1.19,0.94-2.08,1.58-2.66c0.64-0.58,1.49-0.9,2.57-0.96l0.54-0.04
		l0.04-0.54h-9.82V1.03z"/>
	<path class="st0" d="M224.47,6.06c-1.31-1.38-2.93-2.48-4.85-3.29c-1.92-0.81-4.17-1.22-6.73-1.22c-2.57,0-4.82,0.41-6.75,1.22
		c-1.94,0.81-3.56,1.91-4.87,3.29c-1.31,1.38-2.29,2.98-2.95,4.81c-0.66,1.83-0.98,3.76-0.98,5.81c0,2.05,0.33,3.99,0.98,5.81
		c0.66,1.82,1.64,3.43,2.95,4.81c1.31,1.38,2.93,2.48,4.87,3.29c1.94,0.81,4.19,1.22,6.75,1.22c2.56,0,4.81-0.41,6.73-1.22
		c1.92-0.81,3.54-1.91,4.85-3.29c1.31-1.38,2.29-2.98,2.95-4.81c0.66-1.82,0.98-3.76,0.98-5.81c0-2.05-0.33-3.99-0.98-5.81
		C226.76,9.04,225.78,7.44,224.47,6.06z M222.33,22.02c-0.43,1.68-1.06,3.16-1.9,4.42c-0.84,1.27-1.9,2.27-3.16,3.01
		c-1.27,0.74-2.74,1.11-4.42,1.11c-1.68,0-3.16-0.37-4.45-1.11c-1.28-0.74-2.35-1.74-3.21-3.01c-0.85-1.27-1.49-2.74-1.92-4.42
		c-0.43-1.68-0.64-3.46-0.64-5.34c0-1.88,0.21-3.66,0.64-5.34c0.43-1.68,1.07-3.16,1.92-4.42c0.86-1.27,1.92-2.27,3.21-3.01
		c1.28-0.74,2.76-1.11,4.45-1.11c1.68,0,3.16,0.37,4.42,1.11c1.27,0.74,2.32,1.75,3.16,3.01c0.84,1.27,1.47,2.74,1.9,4.42
		c0.43,1.68,0.64,3.46,0.64,5.34C222.97,18.56,222.76,20.34,222.33,22.02z"/>
	<path class="st0" d="M275.31,30.14c-0.27-0.2-0.56-0.5-0.88-0.9c-0.31-0.4-0.76-0.95-1.33-1.66c-2.02-2.67-3.75-4.94-5.17-6.79
		c-1.42-1.85-2.45-3.16-3.08-3.93c2.31-0.51,4.13-1.42,5.45-2.72c1.33-1.3,1.99-2.89,1.99-4.77c0-1.17-0.26-2.22-0.77-3.17
		c-0.51-0.94-1.23-1.75-2.16-2.42c-0.93-0.67-2.04-1.19-3.33-1.56c-1.3-0.37-2.74-0.56-4.34-0.56h-14.53l0.13,0.6l0.51,0.04
		c1.03,0.06,1.77,0.36,2.22,0.9c0.46,0.54,0.68,1.4,0.68,2.57v21.76c0,1.17-0.23,2.02-0.68,2.57c-0.46,0.54-1.2,0.84-2.22,0.9
		l-0.51,0.04v0.51h11.58v-0.51L258.36,31c-1.03-0.06-1.77-0.36-2.22-0.9c-0.46-0.54-0.68-1.4-0.68-2.57V17.4h4.06
		c0.66,0.83,1.59,2.04,2.8,3.65c1.21,1.61,2.63,3.48,4.25,5.62c0.85,1.14,1.57,2.04,2.14,2.69c0.57,0.66,1.15,1.13,1.73,1.43
		c0.58,0.3,1.26,0.48,2.03,0.55c0.77,0.07,1.81,0.11,3.12,0.11h1.71v-0.94c-0.49,0-0.87-0.01-1.15-0.04
		C275.86,30.45,275.58,30.34,275.31,30.14z M260.46,16.16h-0.04h-5.04V2.91h6.33c1.68,0,3.03,0.59,4.04,1.76
		c1.01,1.17,1.52,2.74,1.52,4.72c0,2.06-0.62,3.7-1.86,4.93C264.15,15.55,262.51,16.16,260.46,16.16z"/>
	<path class="st0" d="M319.95,23.69c-0.09-0.03-0.19-0.06-0.3-0.09l-0.04-0.04l-1.03,2.31c-0.71,1.57-1.57,2.71-2.59,3.42
		c-1.01,0.71-2.3,1.07-3.87,1.07h-7.57V5.82c0-1.17,0.23-2.02,0.69-2.57c0.46-0.54,1.2-0.84,2.22-0.9l0.51-0.04V1.8H296.4v0.51
		l0.51,0.04c1.03,0.06,1.77,0.36,2.22,0.9c0.46,0.54,0.68,1.4,0.68,2.57v21.76c0,1.17-0.23,2.02-0.68,2.56
		c-0.46,0.54-1.2,0.84-2.22,0.9l-0.51,0.04v0.51h22.57l0.09-0.6c0.17-1.08,0.37-2.26,0.6-3.53c0.23-1.27,0.43-2.44,0.6-3.53
		C320.25,23.89,320.15,23.8,319.95,23.69z"/>
	<path class="st0" d="M368.25,10.59c-0.8-1.84-1.92-3.4-3.38-4.7c-1.45-1.3-3.2-2.3-5.24-3.01c-2.04-0.71-4.3-1.07-6.77-1.07
		l-13.72-0.04v0.51l0.51,0.04c1.03,0.06,1.77,0.36,2.22,0.9c0.46,0.54,0.68,1.4,0.68,2.57v21.76c0,1.17-0.23,2.02-0.68,2.56
		c-0.45,0.54-1.2,0.84-2.22,0.9l-0.51,0.04v0.51h15.56c2.22,0,4.24-0.35,6.05-1.07c1.81-0.71,3.35-1.72,4.64-3.01
		c1.28-1.3,2.28-2.86,2.99-4.7c0.71-1.84,1.07-3.87,1.07-6.09C369.45,14.45,369.05,12.42,368.25,10.59z M364,22.25
		c-0.47,1.68-1.15,3.11-2.04,4.31c-0.89,1.2-1.94,2.12-3.15,2.78c-1.21,0.65-2.58,0.98-4.09,0.98h-7.41V3h5.53
		c1.77,0,3.39,0.33,4.84,0.98c1.46,0.65,2.71,1.58,3.75,2.77c1.04,1.2,1.85,2.63,2.42,4.31c0.57,1.68,0.86,3.54,0.86,5.59
		C364.7,18.71,364.47,20.57,364,22.25z"/>
</g>
</svg>
